<svg version="1.1" id="Capa_1" xmlns="http://www.w3.org/2000/svg" xmlns:xlink="http://www.w3.org/1999/xlink" x="0px" y="0px"
	 viewBox="0 0 146.1 132.6" style="enable-background:new 0 0 146.1 132.6;" xml:space="preserve">
<style type="text/css">
	.st0{display:none;}
	.st1{display:inline;}
	.st2{stroke:#FFFFFF;stroke-width:2;stroke-miterlimit:10;}
	.st3{enable-background:new    ;}
	.st4{fill:#CCB187;}
</style>
    <g>
        <path d="M137.581 50.364h-7.977v-7.9c0-.788-.635-1.426-1.419-1.426h-13.079c.056-1.536 0-2.525-.012-2.688a1.424 1.424 0 0 0-.765-1.158 1.41 1.41 0 0 0-1.386.048 32.702 32.702 0 0 0-5.075 3.798l-16.772.033c-6.323-14.84-18.463-20.648-19.058-20.933a1.413 1.413 0 0 0-1.383.094 1.427 1.427 0 0 0-.642 1.233c.231 8.821 3.608 15.127 7.633 19.573H62.419c-.784 0-1.419.638-1.419 1.426v126.784c0 .788.635 1.426 1.419 1.426h7.977v7.9c0 .788.635 1.426 1.419 1.426h65.766c.784 0 1.419-.638 1.419-1.426V51.79c0-.788-.635-1.426-1.419-1.426zm-28.31-6.733c.138-.092.254-.201.352-.335a28.893 28.893 0 0 1 2.63-2.181c-.245 4.982-1.876 16.385-11.121 26.218-.534-4.868-.462-15.486 8.139-23.702zm-4.133.259c-3.886 4.645-5.704 9.776-6.466 14.295-2.144-6.25-4.89-10.467-5.15-10.858a1.4 1.4 0 0 0-.363-.365 44.77 44.77 0 0 0-.953-3.073h12.932zm-14.981 2.768c-4.929-2.205-15.6-8.555-17.134-22.667 4.18 2.68 13.213 9.744 17.134 22.667zM63.838 43.89h16.03c.204 0 .32-.004.706.019 5.571 4.811 11.176 6.419 11.286 6.45.061.017.124.017.186.026 1.538 2.729 4.655 8.987 5.833 16.599-9.957-14.638-24.803-17.633-25.486-17.762a1.403 1.403 0 0 0-1.313.442c-.33.367-.447.88-.31 1.356 5.573 19.202 23.458 21.918 27.567 22.291-.065 4.85-1.136 9.97-3.969 14.912-1.488 2.596-2.523 5.442-3.216 8.424-2.834-12.941-10.659-20.47-11.087-20.871a1.396 1.396 0 0 0-1.345-.331 1.416 1.416 0 0 0-.984.977c-6.223 21.65 11.929 34.065 12.114 34.188.081.054.18.046.268.082.407 7.673 2.092 15.215 3.793 21.106H92.2c-.784 0-1.419.638-1.419 1.426 0 .788.635 1.426 1.419 1.426h2.573c.432 1.368.848 2.609 1.229 3.694H79.171c-.784 0-1.419.638-1.419 1.426 0 .788.635 1.426 1.419 1.426h17.876c.427 1.113.719 1.807.795 1.987.229.541.753.868 1.304.868a1.425 1.425 0 0 0 1.304-1.985c-.013-.03-.141-.338-.35-.87h10.244c.784 0 1.419-.638 1.419-1.426 0-.788-.635-1.426-1.419-1.426H99.036c-.374-1.05-.798-2.29-1.248-3.694h11.297c.784 0 1.419-.638 1.419-1.426 0-.788-.635-1.426-1.419-1.426H96.912c-1.769-6.025-3.609-13.998-3.962-21.963 20.094-3.938 28.617-19.593 28.971-20.263a1.424 1.424 0 0 0-.029-1.39 1.408 1.408 0 0 0-1.193-.703c-16.024-.334-24.251 10.136-27.697 16.268.333-5.098 1.46-9.98 3.822-14.103 3.546-6.186 4.616-12.541 4.392-18.387 10.17-9.543 12.956-20.793 13.675-27.368h11.873V167.82H63.838V43.89zM96.63 70.232c-5.323-.87-17.252-4.284-22.311-17.538 4.724 1.525 15.248 6.046 22.311 17.538zM89.341 106.6c-4.063-3.556-12.355-12.761-9.504-26.849 3.18 3.844 9.665 13.358 9.504 26.849zm5.345-.063c2.367-4.861 9.078-15.287 23.357-16.157-2.874 4.078-10.345 12.834-23.357 16.157zm41.476 70.611H73.234v-6.474h54.951c.784 0 1.419-.638 1.419-1.426V53.216h6.557v123.932z"></path>
        <path d="M77.773 134.651h7.912c.784 0 1.419-.638 1.419-1.426 0-.788-.635-1.426-1.419-1.426h-7.912c-.784 0-1.419.638-1.419 1.426 0 .788.635 1.426 1.419 1.426z"></path>
        <path d="M79.034 147.978h8.373c.784 0 1.419-.638 1.419-1.426 0-.788-.635-1.426-1.419-1.426h-8.373c-.784 0-1.419.638-1.419 1.426 0 .788.635 1.426 1.419 1.426z"></path>
        <path d="M97.315 147.978h11.166c.784 0 1.419-.638 1.419-1.426 0-.788-.635-1.426-1.419-1.426H97.315c-.784 0-1.419.638-1.419 1.426 0 .788.635 1.426 1.419 1.426z" ></path>
        <path d="M77.773 154.289h18.748c.784 0 1.419-.638 1.419-1.426 0-.788-.635-1.426-1.419-1.426H77.773c-.784 0-1.419.638-1.419 1.426 0 .788.635 1.426 1.419 1.426z" ></path>
        <path d="M103.036 151.437c-.784 0-1.419.638-1.419 1.426 0 .788.635 1.426 1.419 1.426h6.05c.784 0 1.419-.638 1.419-1.426 0-.788-.635-1.426-1.419-1.426h-6.05z" ></path>
        <path d="M103.594 80.007a4.515 4.515 0 0 0-2.819 2.052 4.545 4.545 0 0 0-.548 3.454 4.559 4.559 0 0 0 5.48 3.387 4.524 4.524 0 0 0 2.822-2.052 4.55 4.55 0 0 0 .548-3.457c-.583-2.451-3.046-3.969-5.483-3.384zm2.516 5.347a1.698 1.698 0 0 1-1.061.774 1.717 1.717 0 0 1-2.066-1.276 1.726 1.726 0 0 1 1.27-2.075 1.718 1.718 0 0 1 1.857 2.577z" ></path>
        <path d="M90.744 84.066c.349 0 .702-.041 1.056-.126a4.515 4.515 0 0 0 2.819-2.052 4.545 4.545 0 0 0 .548-3.454 4.535 4.535 0 0 0-2.042-2.836 4.519 4.519 0 0 0-3.44-.551c-2.442.585-3.952 3.058-3.368 5.509a4.563 4.563 0 0 0 4.427 3.51zm-1.46-5.473a1.701 1.701 0 0 1 1.458-.822 1.724 1.724 0 0 1 .399 3.4 1.716 1.716 0 0 1-2.066-1.276 1.71 1.71 0 0 1 .209-1.302z"></path>
        <path d="M94.703 39.916a4.48 4.48 0 0 0 3.438.551c2.437-.583 3.95-3.053 3.372-5.507l-.002-.002a4.542 4.542 0 0 0-2.042-2.833 4.467 4.467 0 0 0-3.44-.551c-2.439.585-3.95 3.056-3.368 5.509a4.534 4.534 0 0 0 2.042 2.833zm1.985-5.572a1.69 1.69 0 0 1 1.294.21c.39.239.664.619.77 1.064a1.73 1.73 0 0 1-1.27 2.079 1.716 1.716 0 0 1-2.064-1.276 1.728 1.728 0 0 1 1.27-2.077z" ></path>
    </g>
</svg>