<?xml version="1.0" encoding="utf-8"?>
<!-- Generator: Adobe Illustrator 23.0.2, SVG Export Plug-In . SVG Version: 6.00 Build 0)  -->
<svg version="1.1" id="Layer_1" xmlns="http://www.w3.org/2000/svg" xmlns:xlink="http://www.w3.org/1999/xlink" x="0px" y="0px"
	 viewBox="0 0 595.28 595.28" style="enable-background:new 0 0 595.28 595.28;" xml:space="preserve">
<style type="text/css">
	.st0{fill:#ffffff;}
	.st1{fill:#ffffff;}
	.st2{fill:#ffffff;}
	.st3{fill:#ffffff;}
	.st4{fill:#ffffff;}
</style>
<path class="st2" d="M101,35.44v207.74c-0.17,1.51-0.17,2.99,0,4.43v312.24h393.42V35.44H101z M420.44,45.12
	c-0.06,3.97,0.23,12.57,3.13,22.99c2.51,9,7.39,20.65,16.82,31.89c-8.76-7.52-16-14.9-17.94-16.91c1.45-1.38,2.37-3.31,2.37-5.46
	c0-4.16-3.38-7.54-7.54-7.54c-4.15,0-7.54,3.38-7.54,7.54c0,4.16,3.38,7.54,7.54,7.54c0.55,0,1.08-0.07,1.6-0.18
	c0.06,0.1,0.1,0.2,0.18,0.29c0.58,0.62,2.51,2.63,5.35,5.43c-5.09-2.04-10.07-3.5-14.93-4.4c-1.4-3.07-3.65-6.77-5.76-9.99
	c-0.63-6.48-4.17-22.96-23.36-31.19H420.44z M376.4,45.12c0.6,4.57,4.21,22.91,23.55,32.63c1.65,2.47,3.42,5.3,4.79,7.85
	c-1.96-0.21-3.89-0.35-5.8-0.37c-1.84-1.29-8.18-4.77-15.39-8.62c-5.36-7.3-19.87-24.45-41.93-31.49H376.4z M312.9,45.12
	c4.09,5.17,16.67,20.13,29.51,25.88c12,5.38,31.06,8.1,39.21,9.08c3.99,2.13,7.57,4.06,10.25,5.54c-5.13,0.64-9.23,1.96-12.23,3.26
	c-7.55,1.13-22.54,4.38-29.86,12.89c-7.54,8.77-10.9,22.52-13.14,31.62c-0.63,2.58-1.19,4.83-1.73,6.59
	c-5.81,3.86-11.47,8.52-16.91,13.96c-7.6,7.61-13.25,15.17-16.77,20.39c-3.52-5.22-9.16-12.78-16.76-20.39
	c-5.36-5.37-10.94-9.96-16.66-13.79c0.63-1.46,1.45-3.17,2.37-5.08c3.79-7.86,9.5-19.75,9.28-30.53
	c-0.25-11.91-11.69-24.79-15.54-28.79c-0.32-2.97-1.29-7.58-4.03-12.95c2.39,1.2,5.5,2.8,8.93,4.59
	c3.81,4.36,11.89,13.19,20.03,19.68c6.86,9.99,10.47,20.09,12.07,25.48c-1.58,1.97-3.09,5.48-3.4,7.28
	c-4.38,4.23-5.22,13.65-1.12,21.56c2.48,4.78,4.92,6.78,7.82,7.49c-1.96,1.57-5.84,5.08-3.98,7.01c1.99,2.07,6.57-4.1,6.57-4.1
	s-1.9,9.83,2.62,8.86c3.96-0.85,0.13-8.9,0.13-8.9c3.01,3.57,6.79,4.6,6.63,1.33c-0.1-2.12-2.82-3.6-4.72-4.38
	c2.75-0.94,8.14-3.96,7.24-13.26c-0.75-7.83-3.98-13.59-8.49-16.29c-0.73-1.62-2.74-5.59-5.61-7.33
	c-1.23-4.29-3.71-11.56-8.11-19.51c13.02,7.07,33.91,7.86,34.13,7.87l0.57,0.02l-0.25-0.51c-15.34-31.6-49.92-35.17-60.55-35.5
	c-6.25-3.25-11.83-6.08-13.81-6.86c-0.92-1.32-1.95-2.67-3.11-4.03c2.5-0.27,5.36-0.38,7.91-0.41c5.84,3.23,12.04,4.88,18.47,4.88
	c10.42,0,17.85-4.4,17.93-4.45l0.44-0.27l-0.41-0.31c-6.73-5.05-13.88-7.6-21.26-7.6c-7.33,0-13.13,2.58-16.03,4.19
	c-3.35,0.07-7.1,0.27-10,0.76c-1.65-1.66-3.49-3.33-5.57-4.98H312.9z M451.15,247.54c6.97,2.19,14.78-1.9,20.52-6.18
	c0.06-0.05,0.12,0.03,0.07,0.1c-3.72,3.91-7.86,8.76-9.88,12.84c-3.31,6.67,0.1,16.46,10.98,9.29c5.13-3.37,8-9.76,9.6-15.59
	c0.03-0.12,0.19-0.1,0.19,0.03c-0.07,3.75,0.41,7.71,1.88,11.59c-1.38,3.45-4.66,11.23-9.22,19.36c-0.83-0.05-1.88-0.08-3.12-0.08
	c-9.61,0-33.58,2.43-48.53,24.94l-0.39,0.59l0.71-0.05c0.19-0.01,19.05-1.41,28.32-4.72c6.47-2.31,12.53-6.96,17.12-11.18
	c-1.8,2.58-3.72,5.03-5.72,7.19c-2.01,2.17-3.99,4.57-5.92,7.08c-5.85,2.09-13.83,6.62-18.09,9.16c-1.23-1.13-2.86-1.84-4.66-1.84
	c-3.81,0-6.91,3.1-6.91,6.91c0,3.81,3.1,6.92,6.91,6.92s6.92-3.1,6.92-6.92c0-0.64-0.12-1.24-0.28-1.83
	c2.82-1.67,7.34-4.27,11.7-6.38c-1.99,2.86-3.87,5.73-5.59,8.47c-17.02,16.77-32.14,20.31-41.84,20.31c-0.57,0-1.09-0.02-1.62-0.04
	c-5.55-7.59-12.31-13.23-19.26-17.47c5.36-4.59,10.76-9.42,16.13-14.51c20.89-19.8,35.96-40.86,44.61-61.86
	C446.5,245.25,448.2,246.62,451.15,247.54z M448.93,235.11c1.13-3.45,2.09-6.9,2.87-10.33c2.37,2.16,5.83,3.76,10.36,4.04
	c2.35,0.15,4.33,0.21,6.01,0.23c-1.94,0.18-4.23,0.39-6.95,0.63C456.53,230.11,451.96,232.33,448.93,235.11z M394.49,298.5
	c-40.62,38.5-83.19,62.74-93.25,68.22c-10.06-5.48-52.63-29.72-93.25-68.22c-34.5-32.71-52.23-68.57-49.92-100.98
	c1.37-19.29,10-35.92,23.68-45.61c14.79-10.49,29.55-15.8,43.87-15.8c43.51,0,71.11,49.19,71.38,49.68l4.24,7.73l4.24-7.74
	c0.27-0.5,27.76-49.68,71.38-49.68c14.31,0,29.07,5.32,43.87,15.8c13.67,9.69,22.3,26.32,23.68,45.61
	C446.72,229.94,428.99,265.8,394.49,298.5z M283.47,380.96c-3.29-12.43-21.74-13-21.74-13c0.7,19.9,11.35,22.5,11.35,22.5
	c-6.28,0.23-10.71,2.42-13.68,4.71c-0.04-0.13-0.07-0.24-0.11-0.37c-2.73-8.96-6.85-22.51-14.86-30.85
	c-7.52-7.83-21.94-10.35-29.75-11.15c-3.03-1.37-7.29-2.79-12.69-3.47c2.68-1.48,6.26-3.42,10.25-5.54
	c5.94-0.71,17.66-2.36,28.22-5.28c20.32,15.34,38.16,26.36,48.66,32.47C284.34,375.27,283.47,380.96,283.47,380.96z M288.44,393.67
	c0,2.81-2.28,5.09-5.1,5.09c-2.81,0-5.1-2.28-5.1-5.09c0-2.82,2.28-5.1,5.1-5.1C286.15,388.57,288.44,390.85,288.44,393.67z
	 M194.91,348.95c-1.91,0.02-3.85,0.16-5.8,0.37c1.37-2.56,3.14-5.38,4.78-7.85c12.44-6.25,18.36-16.07,21.17-23.49
	c2.96,2.57,5.91,5.07,8.84,7.49c-6.46,5.75-11.06,11.41-13.6,14.86C203.09,344.17,196.74,347.66,194.91,348.95z M143.92,167.36
	c2.1-2.45,4.11-4.93,5.96-7.29c10.34-8.32,18.07-12.32,23.68-14.09c-5.35,4.25-9.95,9.43-13.72,15.31
	c-0.26-0.15-0.56-0.24-0.88-0.24c-0.28,0-0.55,0.06-0.8,0.19C158.07,161.28,150.71,164.88,143.92,167.36z M157.24,165.67
	c-1.55,2.87-2.91,5.89-4.08,9.02c-3.35,0.26-6.62,0.67-9.18,1.3c-6.21,1.52-12.26,5.23-16.94,8.71c1.9-2.18,3.88-4.24,5.93-6.04
	c2.07-1.83,4.16-3.88,6.2-6.04C145,171.2,153.17,167.57,157.24,165.67z M161.63,45.12c-3.45,3.05-3.78,6.92-3.78,6.92
	c-0.18-2.72-1.34-5.02-2.98-6.92H161.63z M153.95,62.17c1.2-2.54,4.23-3.64,6.78-2.44c2.54,1.2,3.64,4.24,2.44,6.78
	c-1.2,2.55-4.24,3.64-6.78,2.44C153.85,67.76,152.75,64.72,153.95,62.17z M110.68,55.73c5.69,2.54,12.65,2.03,12.65,2.03
	c-0.31-5.4-2.4-9.61-4.63-12.64h21.07c0.27,8.98,7.36,13.7,7.36,13.7c-12.64-2.32-21.02,14.14-21.02,14.14
	c18.3,7.84,25.19-0.69,25.19-0.69c-5.35,12.52,1.31,21.21,1.31,21.21c14.38-6.59,12.21-19.79,12.21-19.79
	c11.34,8.75,18.7,4.59,18.7,4.59c-0.39-15.26-15.02-16.96-15.02-16.96c7.25-2.77,8.69-11.39,8.91-16.21h55.8
	c-12.38,17.45-4.3,35.13-4.2,35.33l0.21,0.45l0.35-0.35c11.29-11.44,13.12-24.19,12.71-32.79c17.99,14.31,18.14,29.57,18.11,31.11
	c-9.32,25.16,0.12,50.17,4.34,59.31c-12.56-7.71-25.79-11.74-39.1-11.74c-4.61,0-9.25,0.49-13.9,1.42
	c6.01-2.47,12.13-5.39,16.82-8.58c13.57-9.23,24.5-31.24,24.61-31.46l0.25-0.52l-0.57,0.02c-23.75,0.67-39.88,13.64-49.23,24.39
	c-2.77,3.19-5.11,6.37-7.07,9.32c3.5-8.11,5.24-15.36,6.06-19.65c2.7-2,4.34-6.14,4.92-7.82c4.24-3.1,6.93-9.13,6.96-17
	c0.04-9.34-5.61-11.86-8.43-12.54c1.82-0.95,4.39-2.67,4.3-4.79c-0.14-3.27-3.8-1.9-6.48,1.94c0,0,3.08-8.37-0.94-8.85
	c-4.59-0.55-1.8,9.06-1.8,9.06s-5.12-5.72-6.91-3.48c-1.67,2.1,2.51,5.23,4.61,6.62c-2.83,0.97-5.08,3.19-7.11,8.17
	c-3.36,8.26-1.66,17.56,3.09,21.37c0.47,1.76,2.29,5.12,4.04,6.93c-1.57,7.86-6.34,25.64-19.15,39.72
	c-0.13,0.11-0.26,0.23-0.38,0.33c-1.54,0.1-3.16,0.38-4.85,0.81c0.65-2.13,1.58-4.53,2.53-6.78c16.93-13.24,14.85-32.66,14.83-32.87
	l-0.06-0.51l-0.45,0.25c-19.73,10.88-19.15,28.95-18.56,34.02c-0.97,2.45-1.84,4.95-2.34,7.02c-0.01,0.06-0.03,0.12-0.04,0.17
	c-4.02,1.53-8.4,3.87-13.14,7.01c1.99-2.81,3.22-4.68,3.38-4.93c0.02-0.02,0.02-0.05,0.03-0.07c0.07,0,0.14,0.02,0.22,0.02
	c3.16,0,5.74-2.58,5.74-5.74c0-3.16-2.58-5.74-5.74-5.74c-3.17,0-5.74,2.58-5.74,5.74c0,1.77,0.82,3.33,2.08,4.39
	c-1.4,2.09-6.48,9.54-12.9,17.42c6.42-11.29,8.86-22.19,9.65-30.45c1.04-10.84-0.48-19.15-1.08-21.87c0.18-0.09,0.3-0.15,0.3-0.15
	c-4.78-12.1-16.35-10.36-16.35-10.36c9.47-5.86,5.28-21.31,5.28-21.31c-16.31,5.61-15.78,15.09-15.78,15.09
	c-3.85-11.15-13.17-12.86-13.17-12.86c-5.41,12.6,3.67,19.81,3.67,19.81c-2.41,0.19-4.43,0.61-6.13,1.16V55.73z M127.54,105.75
	c-2.33,0.71-4.8-0.6-5.51-2.94c-0.71-2.33,0.6-4.8,2.94-5.51c2.33-0.71,4.8,0.6,5.51,2.94
	C131.19,102.57,129.88,105.04,127.54,105.75z M110.68,111.83c6.04,0.93,10.96-2.58,10.96-2.58c-4.3,8.48,5.66,17.73,5.66,17.73
	c13.2-9.28,6.57-17.95,6.57-17.95c4.45,4.31,11.49,2.79,15.73,1.28c-14.83,15.44-19.14,32.29-20.07,43.98
	c-0.8,9.98,0.66,17.9,1.45,21.31c-0.13,0.12-0.26,0.24-0.39,0.35c-4.38,3.86-8.47,8.77-12.01,13.65c2.07-14.08-3.05-24.26-7.9-30.46
	V111.83z M110.68,190.93c1.47,1.98,2.85,3.51,3.87,4.55c-1.45,2.23-2.75,4.36-3.87,6.28V190.93z M110.68,209.17
	c1.85-3.46,5.35-9.66,9.83-16.04c1.92,0.31,5.11,0.69,9.07,0.69h0c5.7,0,12.55-0.81,19.55-3.35c-0.31,2.09-0.57,4.21-0.72,6.36
	c-1.08,15.15,1.77,30.9,8.25,46.68c-7.66,0.7-15.15,5.7-20.83,10.66c-0.07,0.06-0.17-0.03-0.1-0.11c4.33-5.3,9.09-11.81,11.2-17.1
	c3.45-8.62-2.2-20.09-15.41-9.79c-6.22,4.84-9.14,13.06-10.49,20.4c-0.03,0.16-0.23,0.14-0.24-0.02
	c-0.42-5.02-1.71-10.27-4.59-15.16c-1.06-1.8-3.09-3.48-5.5-3.32V209.17z M132.43,271.48c4.61,1.62,9.13,3.45,9.2,3.48l1.24,0.51
	l-1.33-0.01c-2.24-0.01-6.12-0.81-9.54-1.65c-0.65,2.28-1.87,4.24-3.29,5.23c-0.09,0.07-0.19,0.11-0.29,0.17
	c2.57,4.94,5.2,10.8,5.23,10.88l0.56,1.25l-0.96-0.95c-0.64-0.64-1.38-1.55-2.17-2.6c-1.75-2.37-3.69-5.46-5.14-7.85
	c-1.7,0.06-3.57-0.62-5.28-1.9c-1.83,5.69-5.22,13.79-5.26,13.89l-0.53,1.26l0.05-1.37c0.14-3.99,2.74-12.87,3.62-15.78
	c-0.38-0.44-0.74-0.92-1.07-1.42c-2.58-3.95-2.88-8.54-0.98-11.18c-2.2-5.37-4.51-12.3-4.54-12.38l-0.43-1.3l0.86,1.05
	c1.82,2.23,4.39,7.3,6.13,10.95c1.11-0.52,2.51-0.8,4-0.78c2.18-5.2,5.11-11.15,5.15-11.23l0.6-1.23l-0.13,1.37
	c-0.26,2.71-1.8,7.64-3.09,11.4c2.06,0.47,4.04,1.5,5.44,3.2c5.04-2.72,11.69-5.72,11.77-5.76l1.22-0.55l-0.95,0.97
	c-2.13,2.19-7.32,5.5-10.74,7.58C132.4,268.21,132.58,269.87,132.43,271.48z M110.68,367.02c20.67-16.24,14.88-39.09,14.81-39.34
	l-0.13-0.48l-0.41,0.28c-6.78,4.76-11.29,10.27-14.28,15.71v-29.63c4.44,2.91,9.41,3.09,11.42,1.51c3.67-2.88,5.94-6.01,3.3-16.33
	c-0.93-3.6-1.68-6.65-2.3-9.27c1.49,4.4,4.07,9.38,8.6,13.54c10.82,9.94,25.72,3.47,24.51-2.1c-1.06-4.84-5.92-9.35-11.29-13
	c-0.11-0.07-0.03-0.23,0.09-0.19c6.96,2.56,14.77,3.96,20.54,0.85c9.37-5.05,2.71-21.38-15.8-20.42c-3.07,0.16-5.65,0.36-7.83,0.57
	c2.5-0.5,5.44-1.08,8.94-1.76c5.31-1.04,10.29-3.77,13.86-7.01c8.85,15.53,21.13,30.9,36.62,45.59c2.21,2.1,4.43,4.14,6.65,6.15
	c-14.37,8.74-17.3,22.54-17.87,28.35c-2.11,3.22-4.36,6.92-5.76,9.99c-4.87,0.9-9.86,2.37-14.95,4.41c3.13-3.08,5.13-5.17,5.38-5.44
	c0.08-0.09,0.12-0.2,0.18-0.3c3-0.82,5.22-3.54,5.22-6.81c0-3.91-3.18-7.09-7.09-7.09c-1.56,0-2.99,0.52-4.17,1.38
	c0.5-1.5,0.96-2.96,1.35-4.34c3.99-14.32,3.04-25.26,3.03-25.37l-0.05-0.58l-0.48,0.32c-21.69,14.39-30.41,33.33-33.91,46.69
	c-2.84,10.84-2.79,19.86-2.58,23.75c-0.17,0.11-0.35,0.22-0.52,0.32c-9.52,5.78-18.68,15.05-25.07,22.31V367.02z M164.38,367.42
	c-3.34,0.86-8.01,1.97-12.44,2.74c2.84-2.31,5.58-4.68,8.12-6.96c2.39-1.3,4.76-2.45,7.11-3.51c-1.78,1.46-2.95,3.66-2.95,6.14
	C164.22,366.38,164.28,366.91,164.38,367.42z M153.4,363.76c5.8-6.9,9.87-13.95,12.74-20.45c0.45,2.18,1.91,3.97,3.85,4.92
	C166.99,351.28,160.74,357.47,153.4,363.76z M110.68,426.11c4.47,14.06,13.36,15.51,13.36,15.51c-5.83,0.68-10.18,2.71-13.36,5
	V426.11z M213.96,539.43c-4.09,0.35-8.36,1.43-12.34,3.85c-1.99,1.21-3.8,3.9-1.92,6.88h-85.45c14.11-15.39,28.03-15.77,30.91-15.66
	c7.81,3.42,16.37,5.16,25.53,5.16c12.97,0,24.18-3.52,30.1-5.81c3.82,2.94,8.7,4.52,13.18,5.37
	C214.1,539.25,214.08,539.42,213.96,539.43z M249.96,544.34c-3.25-0.12-10.51-2.3-12.86-3.04c-0.36,0.31-0.74,0.62-1.15,0.9
	c-3.22,2.17-6.95,2.41-9.1,0.82c-4.37,1.84-10.01,3.78-10.08,3.8l-1.06,0.37l0.86-0.72c1.82-1.53,5.97-3.69,8.94-5.15
	c-0.43-0.93-0.68-2.09-0.66-3.34c-4.24-1.83-9.08-4.29-9.15-4.32l-1-0.51l1.11,0.11c2.21,0.22,6.24,1.52,9.3,2.6
	c0.38-1.72,1.23-3.35,2.6-4.53c-2.22-4.23-4.68-9.84-4.71-9.91l-0.45-1.02l0.79,0.79c1.79,1.79,4.48,6.14,6.17,9.01
	c1.23-0.5,2.58-0.65,3.89-0.53c1.32-3.86,2.81-7.66,2.84-7.72l0.41-1.04l-0.01,1.12c-0.01,1.88-0.66,5.13-1.34,8
	c1.86,0.54,3.45,1.57,4.26,2.76c0.05,0.08,0.08,0.17,0.12,0.25c4.03-2.16,8.81-4.37,8.87-4.4l1.01-0.47l-0.78,0.81
	c-0.52,0.54-1.26,1.16-2.12,1.82c-1.93,1.47-4.45,3.1-6.4,4.31c0.04,1.43-0.53,2.99-1.57,4.42c4.63,1.53,11.25,4.38,11.33,4.42
	l1.03,0.45L249.96,544.34z M291.48,478.01c-0.99-12.32-5.69-30.38-22.54-46.46l-0.42-0.4l-0.16,0.56
	c-0.02,0.09-2.58,9.58-1.31,22.83c0.79,8.24,3.22,19.13,9.63,30.41c-7.48-9.2-13.18-17.83-13.26-17.97c-0.53-0.8-1.69-1.05-2.5-0.52
	c-0.83,0.55-1.06,1.67-0.52,2.51c0.41,0.62,1.74,2.63,3.74,5.45c-4.36-2.69-8.46-4.66-12.27-6.09c-0.75-2.91-2.15-6.5-3.49-9.66
	c0.2-2.33,0.25-6.13-0.77-10.5c-1.53-6.61-5.89-15.87-17.9-22.5l-0.45-0.25l-0.06,0.51c-0.02,0.21-2.15,20.16,15.55,33.41
	c1.05,2.42,2.16,5.15,2.96,7.59c-1.74-0.51-3.39-0.9-4.97-1.2c-0.76-0.77-2.58-2.31-5-4.27c-12.2-13.93-16.8-31.13-18.33-38.82
	c1.75-1.81,3.58-5.17,4.04-6.93c4.75-3.81,6.46-13.12,3.1-21.37c-2.03-4.98-4.28-7.2-7.11-8.17c2.1-1.38,6.29-4.52,4.61-6.61
	c-1.79-2.24-6.92,3.48-6.92,3.48s2.79-9.61-1.8-9.06c-4.02,0.48-0.94,8.85-0.94,8.85c-2.67-3.83-6.34-5.21-6.48-1.93
	c-0.09,2.13,2.48,3.85,4.3,4.8c-2.82,0.68-8.47,3.2-8.42,12.54c0.04,7.87,2.72,13.9,6.96,17c0.58,1.68,2.22,5.82,4.92,7.82
	c0.68,3.58,2.01,9.22,4.46,15.7c-0.86-1.09-1.75-2.19-2.71-3.29c-9.35-10.76-25.48-23.72-49.23-24.4l-0.58-0.02l0.26,0.52
	c0.11,0.22,11.04,22.23,24.6,31.46c10.31,7.01,27.52,12.75,35.27,15.13c2.6,2.04,4.98,3.93,6.97,5.52c0.37,0.42,0.74,0.83,1.12,1.25
	c-0.59-0.03-1.16-0.04-1.71-0.04c-2.9,0-5.41,0.29-7.51,0.7c-3.84-2.09-12.54-6.29-20.38-6.29c-1.51,0-2.94,0.16-4.25,0.47
	c-8.39,1.98-16.44,8.79-21.76,13.3c-1.8,1.52-3.36,2.84-4.55,3.67l-0.53,0.36l0.59,0.24c0.1,0.04,9.68,3.94,21.42,3.94
	c12.21,0,22.18-4.03,29.7-11.96c1.96-0.39,4.36-0.68,7.18-0.68c8.29,0,21.44,2.64,37.04,15.14c1.86,2.38,3.87,4.87,5.99,7.33
	c-6.8-2.48-14.13-6.08-14.23-6.12c-0.88-0.43-1.99-0.05-2.42,0.83c-0.44,0.89-0.07,1.98,0.83,2.42c1.31,0.64,12.92,6.27,20.57,8.15
	c2.04,2.16,4.13,4.2,6.21,6.04c2.03,1.79,4.01,3.84,5.91,6.02c-4.67-3.48-10.71-7.17-16.91-8.7c-6.21-1.52-16.58-1.75-22.2-1.75
	c-2.8,0-4.69,0.06-4.71,0.06l-0.71,0.02l0.45,0.54c12.89,15.68,29.72,18.97,41.57,18.97c3.95,0,7.14-0.38,9.05-0.69
	c4.75,6.77,8.42,13.35,10.17,16.66c-12.8-8.58-24.67-11.74-24.85-11.79l-0.71-0.18l0.32,0.67c0.8,1.69,1.69,4.14,2.72,6.99
	c2.18,6.05,5.11,14.1,9.46,20.96h-31.72c4.06-4.12,4.61-9.8,3.05-11.85c-2.34-3.08-4.89-4.98-13.29-2.77
	c-2.93,0.78-5.41,1.41-7.55,1.93c3.58-1.25,7.64-3.42,11.03-7.21c8.09-9.07,2.83-21.56-1.71-20.55c-3.94,0.88-7.61,4.97-10.58,9.46
	c-0.06,0.09-0.19,0.03-0.15-0.08c2.08-5.83,3.23-12.38,0.69-17.22c-4.12-7.86-17.4-2.27-16.63,13.25c0.13,2.58,0.29,4.74,0.46,6.57
	c-0.4-2.09-0.88-4.56-1.44-7.5c-2.45-12.88-16.35-23.66-18.91-9.07c-1.38,7.82,3.6,15.88,8.51,21.67c0.05,0.06-0.02,0.14-0.09,0.09
	c-4.32-3.63-9.62-7.62-13.92-9.39c-5.92-2.44-13.49,0.55-10.68,8.19c-6.9-3.64-15.7-7.67-24.01-7.94
	c-7.45-0.25-15.54,4.1-21.33,8.08c4.3-5.04,8.62-9.21,12.68-12.65c2.57,0.57,5.12,0.86,7.6,0.86c21.13,0,32.72-20.63,32.83-20.84
	l0.19-0.35l-0.37-0.14c-4.25-1.6-8.42-2.41-12.4-2.41c-16.51,0-26.11,13.93-29.3,19.51c-6.23,5.18-13.1,12.09-19.69,21.15
	c-2.92,0.33-6.84,1.18-11.34,3.17c1.33-2.32,3.1-5.35,5.07-8.68c5.71-4.49,18.83-15.29,25.43-24.86
	c8.54-12.41,10.59-34.87,10.61-35.1l0.05-0.57l-0.53,0.22c-20.11,8.46-29.61,24.92-34.04,37.23c-3.19,8.86-4.28,16.89-4.65,21.32
	c-3.59,6.06-6.71,11.49-7.59,13.43c-1.37,0.85-2.77,1.8-4.19,2.89c-0.13-2.51-0.09-5.37,0.01-7.92
	c11.57-18.53,2.49-36.14,2.39-36.32l-0.24-0.45l-0.33,0.39c-13.43,16.05-8.05,31.54-5.4,37.04c-0.11,3.36-0.11,7.12,0.22,10.04
	c-1.87,1.67-3.75,3.57-5.64,5.72v-89.35c11.44,3.8,19.79-2.98,19.79-2.98c-2.31,16.66,6.22,21.73,6.22,21.73
	c15.32-9.29,8.52-25.18,8.52-25.18c9.97,8.16,25.1-2.34,25.1-2.34c-8.44-20.16-21.83-13.91-21.83-13.91
	c10.53-6.97,5.29-25.59,5.29-25.59c-17.4,2.8-18.46,18.61-18.46,18.61c-4.07-11.57-19.14-13.04-24.63-13.18v-11
	c2.78-3.31,6.43-7.43,10.58-11.55c3.63,1.26,11.7,3.61,21.65,3.61c0,0,0,0,0,0c14.27,0,26.93-4.63,37.65-13.76l0.53-0.46l-0.69-0.14
	c-0.17-0.04-16.79-3.49-27.41-3.49c-0.9,0-1.75,0.03-2.53,0.08c-7.25,0.47-14.77,3.44-20.63,6.4c2.6-2.11,5.28-4.06,7.97-5.7
	c2.64-1.6,5.34-3.45,8.02-5.43c6.3-0.4,15.25-2.54,20.37-3.88c1.46,1.68,3.59,2.77,6,2.77c4.4,0,7.98-3.57,7.98-7.98
	c0-4.41-3.57-7.98-7.98-7.98c-0.3,0-0.58,0.06-0.87,0.09c8.31-3.24,16.34-4.92,23.98-4.92c6.01,0,10.87,1.04,14.52,2.25
	c9.62,26.12,33.36,39.64,44.94,44.86c-0.21,0.33-0.32,0.54-0.32,0.54c12.09,10.21,23.11,2.62,23.11,2.62
	c-3.09,13.99,3.81,18.88,3.81,18.88c13.64-6.86,8.94-20.81,8.94-20.81c7.91,7.6,21.48-0.29,21.48-0.29
	c-5.8-17.7-17.6-13.3-17.6-13.3c3.99-2.21,5.72-6.39,6.38-10.47l0.68,0.35l2.21-1.14c0.38-0.19,28.5-14.79,62.45-40.95
	c1.41,1.14,2.87,2.19,4.39,3.07c4.21,2.45,9.91,3.69,16.94,3.69c5.04,0,9.83-0.65,13.25-1.27c1.6,0.23,3.47,0.41,5.64,0.41
	c2.05,0,4.35-0.16,6.83-0.54c-2.06,2.06-4.81,4.74-7.89,7.71c-7.22,3.03-23.95,10.53-33.54,18.59
	c-6.14,5.17-11.33,13.33-15.02,20.31c-3.66-7.6-9.46-7.7-12.2-7.24c1.3-1.58,3-4.17,2.08-6.09c-1.41-2.96-4.25-0.26-5.2,4.32
	c0,0-0.45-8.91-4.34-7.78c-4.44,1.29,1.89,9.04,1.89,9.04s-6.95-3.26-7.72-0.49c-0.72,2.58,4.35,3.83,6.83,4.28
	c-2.23,2-3.42,4.92-3.34,10.3c0.14,8.91,5.35,16.81,11.21,18.46c1.12,1.44,4.11,3.81,6.44,4.8c1.63,7.85,4.2,26.07-2.07,44.04
	c-0.34,0.69-0.6,1.26-0.77,1.66c-1.36,0.9-2.74,1.93-4.14,3.07c-0.22-2.55-0.27-5.47-0.25-8.07c11.11-19.13,1.34-36.65,1.24-36.83
	l-0.25-0.45l-0.32,0.4c-1.63,2.08-2.95,4.14-4.03,6.16c-6.82-6.6-12.53-2.18-12.53-2.18c5.5-5.75-0.31-16.47-0.31-16.47
	c-10.3,4.15-8.75,14.02-8.75,14.02c-5.06-8.05-18.22-4.38-18.22-4.38c4.88,13.89,12.97,13.38,12.97,13.38
	c-9.5,3.35-10.9,11.32-10.9,11.32c2.61,1.1,4.93,1.46,6.97,1.4c-7.97,20.33-5.33,37.83-1.57,49.1c3.17,9.49,7.61,16.22,9.68,19.04
	c-0.07,0.16-0.15,0.32-0.22,0.48c-2.54,5.3-4.38,11.44-5.73,17.35c-3.79-6.98-12.38-21.53-22.56-30.5
	c-0.13-0.11-0.26-0.24-0.39-0.35C290.82,495.91,292.28,487.99,291.48,478.01z M130.38,444.88c-0.26-3.29,2.19-6.17,5.48-6.44
	c3.29-0.26,6.18,2.19,6.44,5.49c0.26,3.29-2.19,6.17-5.49,6.44C133.52,450.63,130.65,448.17,130.38,444.88z M332.85,470.72
	c-1.01-0.18-1.93,0.49-2.1,1.46c-0.03,0.15-1.88,10.32-5.17,21.71c1.48-12.88-0.54-23.85-3.04-31.74
	c-2.79-8.83-6.57-15.24-8.64-18.36c4.44-1.17,6.83-4.22,6.83-4.22c0.9,10.56,6.85,12.49,6.85,12.49c8.12-7.85,1.72-16.67,1.72-16.67
	c3.21,1.6,6.53,0.82,9.24-0.55c-2.82,10.88,0.76,19.87,2.8,23.78c0,3.42,0.12,7.25,0.56,10.21c-2.96,2.83-5.96,6.27-8.9,10.44
	c0.73-3.36,1.17-5.71,1.3-6.45C334.48,471.83,333.83,470.89,332.85,470.72z M321.57,427.89c1.99-0.62,4.1,0.49,4.72,2.47
	c0.62,1.99-0.49,4.1-2.48,4.72c-1.99,0.62-4.1-0.48-4.72-2.47C318.48,430.63,319.59,428.51,321.57,427.89z M351.3,547.18
	c-1.13,0.92-2.26,1.91-3.41,2.98h-19.13c-4.08-5.27-8.73-9.66-13.44-13.28c0.25-1.4,0.54-2.84,0.85-4.3
	c7.11-1.8,31.55-9.83,39.44-36.62l0.2-0.68l-0.66,0.26c-0.17,0.06-16.7,6.55-24.1,12.09c-5.1,3.82-9.22,9.59-12.16,14.61
	c0.89-2.74,1.91-5.4,3.08-7.84c1.2-2.5,2.31-5.2,3.35-7.98c6.28-4.7,14.78-14.44,15.75-15.56c0.64-0.75,0.56-1.9-0.19-2.54
	c-0.73-0.63-1.92-0.54-2.55,0.19c-0.07,0.08-5.41,6.26-10.7,11.2c0.98-3.09,1.87-6.17,2.64-9.08
	c12.15-22.63,26.92-28.92,35.03-30.63c4.75,2.06,9.72,3.11,14.81,3.11c12.46,0,23.25-6.24,29.53-10.86
	c6.98,7.38,15.46,9.29,19.5,9.78c2.74,1.94,5.88,4,8.49,5.32c0.59,3.98,1.66,8.35,3.34,13.07c-2.28-2.48-3.94-4.2-4.45-4.72
	c-0.67-0.67-1.85-0.68-2.52-0.02c-0.34,0.33-0.53,0.78-0.53,1.26c-0.01,0.48,0.18,0.93,0.52,1.27c0.11,0.11,7.61,7.74,15.11,17.2
	c-15.5-13.68-32.72-16.69-40.88-17.31c0.68-3.31,0.98-5.48,0.99-5.55l0.08-0.57l-0.54,0.2c-20.49,7.5-30.75,23.49-35.76,35.58
	c-3.6,8.7-5.07,16.67-5.65,21.08c-3.87,5.89-7.25,11.16-8.22,13.06c-1.41,0.78-2.85,1.67-4.32,2.69c-0.01-2.52,0.16-5.37,0.39-7.92
	c12.43-17.96,4.19-35.98,4.1-36.17l-0.22-0.46l-0.35,0.38c-14.17,15.39-9.53,31.12-7.15,36.74
	C351.28,540.5,351.1,544.25,351.3,547.18z M484.73,546.55c-17.46-20.21-40.3-21.34-45.08-21.34c-0.66,0-1.01,0.02-1.01,0.02
	l-0.58,0.03l0.3,0.49c8.43,13.75,19.51,20.8,29.2,24.4H353.64c12.89-10.34,24.21-10.14,26.83-9.92c8.63,4.28,18.3,6.44,28.81,6.44
	c17.46,0,31.27-6.11,31.41-6.17l0.68-0.3l-0.67-0.32c-1.56-0.76-3.63-2.02-6.02-3.49c-7.06-4.32-17.73-10.86-27.93-11.67
	c-0.5-0.04-1.02-0.06-1.54-0.06c-6.88,0-14.25,3.55-19.22,6.53c-3.33,1.99-6.05,4-7.66,5.25c-2.98,0.01-7.72,0.49-13.43,2.7
	c1.44-2.25,3.34-5.19,5.47-8.43c5.92-4.21,19.54-14.38,26.57-23.63c4.84-6.37,7.99-15.65,9.88-23c18.22,24.4,44.1,26.42,52.02,26.42
	c0.27,0,0.5,0,0.73-0.01c0.08,0.15,0.18,0.3,0.26,0.45c6.62,11.84,19.07,23.26,24.9,28.24V546.55z M484.73,428.24
	c-17.55,10.76-15.99,29.3-15.97,29.5l0.05,0.49l0.45-0.21c7.32-3.51,12.2-8.29,15.47-13.11v89.51c-2.92-2.61-6.7-6.17-10.45-10.24
	c2.59-6.75,10-30.96-7.06-52.5l-0.44-0.55l-0.17,0.68c-0.04,0.17-4.21,17.15-3.96,26.24c0.18,6.27,2.47,12.84,4.84,18.05
	c-1.69-2.26-3.24-4.58-4.54-6.9c-1.33-2.38-2.87-4.8-4.52-7.21c-0.17-6.32-2.18-15.61-3.12-19.64c4.12-0.53,7.33-4.02,7.33-8.28
	c0-4.62-3.76-8.39-8.39-8.39c-4.62,0-8.39,3.76-8.39,8.39c0,3.68,2.39,6.78,5.69,7.9c0.48,1.99,1.96,8.42,2.78,14.33
	c-1.92-2.54-3.88-4.98-5.78-7.26c-10.54-21.08-8.33-35.96-5.37-43.95c24.4-8.01,37.11-30.09,41.55-39.49V428.24z M484.73,401.32
	c-1.45,0.46-3.25,0.93-5.24,1.46c-7.98,2.12-20.03,5.31-27.63,12.11c-7.13,6.36-9.8,18.93-10.76,25.8
	c-1.29,2.6-2.67,6.27-3.45,10.97c-1.21-2.39-2.77-5.55-4.48-9.06c-0.6-7.22-2.4-24.06-6.74-34.79
	c-5.64-13.92-23.21-27.94-23.39-28.08l-0.45-0.36l-0.11,0.56c-3.99,21.37,4.49,38.3,12.31,48.74c5.63,7.51,11.71,12.82,15.2,15.56
	c3.13,6.41,5.97,12.06,7.06,13.76c-0.04,1.59,0,3.27,0.12,5.03c-2.18-1.27-4.55-2.89-6.65-4.4c-9.07-19.78-28.71-21.88-28.91-21.9
	l-0.51-0.05l0.15,0.49c0.68,2.28,1.49,4.35,2.4,6.24c-4.5-1.23-9.56-2.32-14.45-2.32c-1.66,0-3.26,0.13-4.72,0.38
	c-5.89,1.01-11.5,5.54-15.18,9.17c-2.25,2.22-4.05,4.36-5.2,5.82c-2.61,0.55-5.73,1.52-9.15,3.17c1.34-2.53,3.16-5.88,5.19-9.56
	c6.21-5.22,19.8-17.23,26.54-27.72c8.87-13.81,10.31-38.33,10.33-38.58l0.03-0.57l-0.52,0.24c-21.59,9.91-31.36,28.16-35.76,41.71
	c-1.3,4.02-2.21,7.86-2.86,11.34c0.05-8.83-1.18-16.18-2.11-20.45c1.7-2.89,1.59-7.35,1.47-9.12c1.24-2.07,1.91-4.59,2-7.41
	c18.5-4.97,30.53-17.24,37.63-27.32c5.85-8.31,9.27-16.35,10.92-20.85c5.51-5.33,10.43-10.2,11.81-11.89
	c1.67-0.49,3.4-1.11,5.19-1.83c-0.58,2.69-1.46,5.71-2.32,8.39c-17.31,15.95-12.89,36.85-12.85,37.07l0.12,0.5l0.42-0.29
	c18.53-12.84,17.37-30.48,16.18-36.95c1.08-3.49,2.17-7.45,2.65-10.61c3.94-1.96,8.11-4.54,12.45-7.89
	c-1.84,3.25-3.06,5.57-3.43,6.28c-0.48,0.93-0.11,2.08,0.81,2.57c0.27,0.14,0.57,0.21,0.87,0.21c0.72,0,1.36-0.39,1.7-1.03
	c0.08-0.15,5.24-10.02,12.21-20.63c-5.63,12.7-7.03,24.57-6.97,33.43c0.04,5.52,0.63,10.35,1.34,14.23
	c-4.94-4.85-12.04-6.98-12.04-6.98c-4.21,18.34,4.88,23.31,4.88,23.31c-12.55-2.87-19.5,4.79-19.5,4.79
	c8.55,12.26,20.46,8.02,20.46,8.02c-6.23,12.02-1.13,18.16-1.13,18.16c14.13-2.93,13.24-16.82,13.24-16.82
	c5.37,8.88,19.68,4.97,19.68,4.97c-0.98-17.57-12.83-16.43-12.83-16.43c9.87-2.46,10.9-18,10.9-18
	c-13.96-2.55-19.02,9.17-19.02,9.17c0-0.68-0.06-1.34-0.16-1.98c14.87-18.34,17.74-37.2,17.46-49.96
	c-0.24-10.67-2.65-18.91-3.86-22.43c0.13-0.14,0.26-0.29,0.39-0.43c7.97-8.62,14.39-20.92,18.27-29.43V401.32z M450.66,379.97
	c2.57,0.68,4.1,3.32,3.41,5.9c-0.69,2.57-3.33,4.1-5.9,3.41c-2.57-0.69-4.1-3.32-3.41-5.89
	C445.45,380.81,448.09,379.28,450.66,379.97z M484.73,236.94c-0.74,0.16-1.53,0.23-2.38,0.12c-2.08,4.02-4.77,8.58-4.81,8.64
	l-0.56,0.93l0.21-1.09c0.41-2.17,1.97-6.02,3.25-8.96c-1.53-0.56-2.96-1.58-3.89-3.07c-4.05,1.75-9.36,3.59-9.43,3.62l-0.98,0.34
	l0.8-0.7c1.8-1.58,6.01-3.81,8.78-5.19c-0.34-1.28-0.34-2.63-0.1-3.93c-3.38-1.72-6.69-3.6-6.74-3.64l-0.91-0.52l1.02,0.12
	c1.71,0.2,4.6,1.2,7.14,2.18c0.67-1.79,1.76-3.27,2.92-3.94c0.08-0.04,0.16-0.07,0.24-0.11c-1.57-4.23-3.11-9.2-3.13-9.27
	l-0.33-1.06l0.66,0.86c0.44,0.57,0.94,1.38,1.45,2.3c1.15,2.07,2.39,4.75,3.3,6.81c1.17,0.09,2.39,0.7,3.5,1.68V236.94z
	 M484.73,168.43c-15.67-22.54-40.36-24.78-40.65-24.8l-0.51-0.04l0.16,0.49c8.92,28.14,30.1,35.61,41,37.59v13.45
	c-1.67,1.91-2.49,4.84-1.61,11.1c0.42,3,0.76,5.53,1.02,7.71c-0.79-3.7-2.37-7.96-5.49-11.72c-7.46-9.01-19.33-5.09-18.84-0.47
	c0.42,4.01,3.77,8.09,7.58,11.52c0.08,0.07,0.01,0.2-0.09,0.15c-4.29-2.26-9.1-3.89-13.28-3.16c0.34-4.51,0.36-8.98,0.05-13.4
	c-1.58-22.2-11.69-41.45-27.74-52.83c-16.47-11.67-33.11-17.58-49.47-17.58c-7.4,0-14.77,1.25-22.03,3.68
	c10.86-8,23.23-20.52,28.87-38.46c3.68-1.26,8.64-2.35,14.82-2.35c11.02,0,22.85,3.42,35.19,10.15c2.54,2.29,5.29,4.66,8.15,6.98
	c-5.89-1.02-12.23-2.66-15.23-3.48c-0.86-3.52-4.02-6.16-7.8-6.16c-4.44,0-8.05,3.61-8.05,8.05c0,4.44,3.61,8.05,8.05,8.05
	c3.68,0,6.75-2.49,7.71-5.87c4.84,1.29,14.71,3.73,21.46,4.17c2.67,1.97,5.37,3.82,8.03,5.43c2.68,1.63,5.35,3.57,7.95,5.69
	c-5.86-2.96-13.37-5.93-20.61-6.39c-0.77-0.05-1.62-0.08-2.52-0.08c-10.63,0-27.24,3.45-27.41,3.49l-0.69,0.14l0.54,0.46
	c10.71,9.13,23.38,13.76,37.65,13.76c9.94,0,18-2.34,21.64-3.61c4.99,4.96,9.26,9.91,12.16,13.46V168.43z M484.73,137.36
	c-3.57-4.17-8.24-9.23-13.46-13.99c8.29-8.77,12.02-18.14,13.46-26.35V137.36z M483.58,73.89l-0.17-0.48l-0.39,0.34
	c-20.14,17.71-17.34,38.26-14.97,46.8c-3.21-2.71-6.57-5.23-9.97-7.3c-0.17-0.1-0.35-0.22-0.52-0.32
	c0.21-3.89,0.26-12.91-2.58-23.75c-3.29-12.55-11.2-30.04-30.15-44.05h44.51c-1.7,3.54-4.31,10.12-5.03,18.39
	c0,0,10.65-0.01,20.42-6.42v21.64C484.2,75.74,483.6,73.95,483.58,73.89z"/>
</svg>
